<svg width="16" height="16" viewBox="0 0 16 16" fill="none" xmlns="http://www.w3.org/2000/svg">
<path d="M3.83665 13.522L2.66665 5.33334H13.3333L12.1633 13.522C12.1179 13.8397 11.9594 14.1304 11.7169 14.3407C11.4744 14.5509 11.1643 14.6667 10.8433 14.6667H5.15665C4.8357 14.6667 4.52551 14.5509 4.28303 14.3407C4.04056 14.1304 3.88206 13.8397 3.83665 13.522ZM14 2.66668H10.6666V2.00001C10.6666 1.8232 10.5964 1.65363 10.4714 1.52861C10.3464 1.40358 10.1768 1.33334 9.99998 1.33334H5.99998C5.82317 1.33334 5.6536 1.40358 5.52857 1.52861C5.40355 1.65363 5.33331 1.8232 5.33331 2.00001V2.66668H1.99998C1.82317 2.66668 1.6536 2.73691 1.52858 2.86194C1.40355 2.98696 1.33331 3.15653 1.33331 3.33334C1.33331 3.51015 1.40355 3.67972 1.52858 3.80475C1.6536 3.92977 1.82317 4.00001 1.99998 4.00001H14C14.1768 4.00001 14.3464 3.92977 14.4714 3.80475C14.5964 3.67972 14.6666 3.51015 14.6666 3.33334C14.6666 3.15653 14.5964 2.98696 14.4714 2.86194C14.3464 2.73691 14.1768 2.66668 14 2.66668Z" fill="white"/>
<path fill-rule="evenodd" clip-rule="evenodd" d="M7.06067 8.35355C6.86541 8.15829 6.54883 8.15829 6.35357 8.35355C6.1583 8.54882 6.1583 8.8654 6.35357 9.06066L7.41422 10.1213L6.35355 11.182C6.15829 11.3772 6.15829 11.6938 6.35355 11.8891C6.54882 12.0843 6.8654 12.0843 7.06066 11.8891L8.12133 10.8284L9.18199 11.8891C9.37725 12.0843 9.69384 12.0843 9.8891 11.8891C10.0844 11.6938 10.0844 11.3772 9.8891 11.182L8.82843 10.1213L9.88909 9.06066C10.0843 8.8654 10.0843 8.54882 9.88909 8.35355C9.69383 8.15829 9.37724 8.15829 9.18198 8.35355L8.12133 9.41421L7.06067 8.35355Z" fill="#1C1C1C"/>
</svg>
